<svg xmlns="http://www.w3.org/2000/svg" viewBox="0 0 300 56" fill="none">
  <defs>
    <linearGradient id="grad1" x1="0%" y1="0%" x2="100%" y2="100%">
      <stop offset="0%" stop-color="#3b82f6"/>
      <stop offset="100%" stop-color="#6366f1"/>
    </linearGradient>
  </defs>
  <!-- Icon circle -->
  <circle cx="28" cy="28" r="26" fill="url(#grad1)"/>
  <!-- Sparkle hub -->
  <path d="M28 8L31.5 23L46 19.5L34 27L43 41L28 32.5L13 41L22 27L10 19.5L24.5 23Z" fill="white" fill-opacity="0.95"/>
  <circle cx="28" cy="26.5" r="3.5" fill="url(#grad1)"/>
  <!-- Channah -->
  <path d="M68.5 20.2c-1.8 0-3.1.5-3.1 1.7 0 3.2 9.2 1.4 9.2 7.4 0 3.5-3 5.2-6.8 5.2-2.8 0-5.3-.9-6.8-2.5l2.4-2.6c1.3 1.3 3 1.9 4.5 1.9 1.9 0 3.2-.6 3.2-1.9 0-3.3-9.1-1.4-9.1-7.4 0-3.3 2.9-5.1 6.5-5.1 2.5 0 4.8.7 6.2 2.1l-2.3 2.5c-1.2-1-2.7-1.5-4.2-1.5zM81 17.2h4.5l4.2 9.8 4.2-9.8h4.5v17h-3.8V23l-3.6 8.3h-2.6L84.8 23v11.2H81V17.2zm26.2 17.3c-5.2 0-8.8-3.5-8.8-8.8 0-5.3 3.6-8.8 8.8-8.8s8.8 3.5 8.8 8.8c0 5.3-3.6 8.8-8.8 8.8zm0-3.5c2.8 0 5-2 5-5.3 0-3.3-2.2-5.3-5-5.3s-5 2-5 5.3c0 3.3 2.2 5.3 5 5.3zm16.5-10.5h-5.5v-3.3h14.8v3.3h-5.5v13.7h-3.8V20.5zm12.8-3.3h3.8v13.7h8.3v3.3h-12.1V17.2zm15.5 0h12.5v3.3h-8.7v3.6h7.8v3.2h-7.8v3.6h9v3.3H152V17.2zm18.5 3c-1.8 0-3.1.5-3.1 1.7 0 3.2 9.2 1.4 9.2 7.4 0 3.5-3 5.2-6.8 5.2-2.8 0-5.3-.9-6.8-2.5l2.4-2.6c1.3 1.3 3 1.9 4.5 1.9 1.9 0 3.2-.6 3.2-1.9 0-3.3-9.1-1.4-9.1-7.4 0-3.3 2.9-5.1 6.5-5.1 2.5 0 4.8.7 6.2 2.1l-2.3 2.5c-1.2-1-2.7-1.5-4.2-1.5zm14.5 3c-1.8 0-3.1.5-3.1 1.7 0 3.2 9.2 1.4 9.2 7.4 0 3.5-3 5.2-6.8 5.2-2.8 0-5.3-.9-6.8-2.5l2.4-2.6c1.3 1.3 3 1.9 4.5 1.9 1.9 0 3.2-.6 3.2-1.9 0-3.3-9.1-1.4-9.1-7.4 0-3.3 2.9-5.1 6.5-5.1 2.5 0 4.8.7 6.2 2.1l-2.3 2.5c-1.2-1-2.7-1.5-4.2-1.5z" fill="#1e293b"/>
  <!-- Hub in blue -->
  <path d="M68 42h3.4V48h5.8v-6h3.4v15.5H77.2V51.2h-5.8v6.3H68V42zm17 9.8V42h3.4v9.6c0 2.3 1.3 3.5 3.4 3.5 2.1 0 3.4-1.2 3.4-3.5V42h3.4v9.8c0 4-2.6 6.2-6.8 6.2s-6.8-2.2-6.8-6.2zM103 42h7c3.8 0 6.2 2.2 6.2 5.4 0 3.2-2.4 5.4-6.2 5.4h-3.6v4.7H103V42zm6.7 7.7c1.8 0 2.8-1 2.8-2.3 0-1.3-1-2.3-2.8-2.3h-3.3v4.6h3.3z" fill="#3b82f6"/>
</svg>
